<svg xmlns="http://www.w3.org/2000/svg" viewBox="0 0 297.13 174.6"><defs><style>.cls-1{fill:#0071bc;}.cls-2,.cls-3{fill:#fff;}.cls-3{font-size:36px;font-family:PoorRichard-Regular, Poor Richard;}</style></defs><g id="Layer_2" data-name="Layer 2"><g id="Layer_1-2" data-name="Layer 1"><polygon class="cls-1" points="13.97 67.5 51.65 25.88 76.97 72.56 118.03 25.88 52.22 20.25 13.97 67.5"/><rect class="cls-2" x="34.46" y="54.61" width="9.82" height="9.47"/><rect class="cls-2" x="51.64" y="54.61" width="9.82" height="9.47"/><rect class="cls-2" x="34.46" y="67.63" width="9.82" height="9.47"/><rect class="cls-2" x="51.64" y="67.63" width="9.82" height="9.47"/><rect class="cls-2" x="123.34" y="55.03" width="15.23" height="14.77"/><rect class="cls-2" x="149.99" y="55.03" width="15.23" height="14.77"/><rect class="cls-2" x="123.34" y="75.33" width="15.23" height="14.77"/><rect class="cls-2" x="149.99" y="75.33" width="15.23" height="14.77"/><path class="cls-1" d="M283.16,64.9,234.4,5.06,145.53,0,69.59,96.19l79-86.75,57.1,86.75h32.91C250.71,92,267.2,83.15,283.16,64.9Z"/><text class="cls-3" transform="translate(33.19 148.25) scale(1.46 1)">AgeSerwaa</text><path class="cls-2" d="M108.78,174.38h-1.07a7.63,7.63,0,0,1-.17-2.13c-.6.91-1.9,2.28-5.38,2.28-4.78,0-7.23-2.91-7.23-6.69,0-4,2.62-7,7.49-7,3.6,0,6,1.5,6.5,4h-1.29c-.71-1.88-2.35-3-5.25-3-4.17,0-6.07,2.58-6.07,5.94,0,3,1.83,5.8,5.9,5.8s5.33-2.17,5.33-5.11v-.16h-5.38v-.94h6.62Z"/><path class="cls-2" d="M121.41,171.6c0,.93,0,2.41,0,2.78h-1.15a14,14,0,0,1-.07-1.66c-.5,1.12-1.71,1.88-3.83,1.88-1.71,0-3.9-.53-3.9-3.44v-6.28h1.17v6.06c0,1.38.54,2.73,2.9,2.73,2.66,0,3.66-1.19,3.66-3.91v-4.88h1.19Z"/><path class="cls-2" d="M125.58,169.74a3.69,3.69,0,0,0,3.85,4c2.24,0,3-1,3.43-1.79h1.21c-.5,1.26-1.76,2.68-4.69,2.68a4.63,4.63,0,0,1-5-4.9,4.79,4.79,0,0,1,5.16-5c3.66,0,4.83,2.52,4.83,4.31a6.61,6.61,0,0,1,0,.78Zm7.54-.84a3.32,3.32,0,0,0-3.64-3.36,3.49,3.49,0,0,0-3.83,3.36Z"/><path class="cls-2" d="M137.55,171.75c.4,1.24,1.5,2,3.38,2,2.11,0,3-.78,3-1.84s-.57-1.62-3.24-2.13c-3.07-.59-3.83-1.33-3.83-2.59s1.24-2.52,3.93-2.52,4,1.31,4.16,2.66h-1.19c-.21-.8-1-1.79-3-1.79s-2.66.82-2.66,1.58.57,1.31,2.92,1.77c3.36.64,4.19,1.52,4.19,2.94,0,1.73-1.76,2.79-4.26,2.79-2.71,0-4.23-1.14-4.57-2.85Z"/><path class="cls-2" d="M146.26,164.88h2.21v-3h1.19v3h2.83v.89h-2.83v6.17c0,1.07.28,1.68,1.43,1.68a5.28,5.28,0,0,0,1.23-.12v.84a5.21,5.21,0,0,1-1.47.17c-1.52,0-2.38-.61-2.38-2.13v-6.61h-2.21Z"/><path class="cls-2" d="M161.48,161.08h1.29v5.79h10v-5.79H174v13.3h-1.28v-6.56h-10v6.56h-1.29Z"/><path class="cls-2" d="M188,169.61c0,2.64-1.84,5-5.38,5a4.83,4.83,0,0,1-5.21-5c0-2.72,1.88-5,5.33-5C185.87,164.65,188,166.62,188,169.61Zm-9.33,0a3.89,3.89,0,0,0,4.05,4.08,3.78,3.78,0,0,0,4-4.08,3.85,3.85,0,0,0-4.07-4.09A3.75,3.75,0,0,0,178.64,169.63Z"/><path class="cls-2" d="M199.82,171.6c0,.93,0,2.41,0,2.78H198.7a12,12,0,0,1-.07-1.66c-.5,1.12-1.72,1.88-3.83,1.88-1.72,0-3.9-.53-3.9-3.44v-6.28h1.16v6.06c0,1.38.55,2.73,2.9,2.73,2.67,0,3.67-1.19,3.67-3.91v-4.88h1.19Z"/><path class="cls-2" d="M203.58,171.75c.4,1.24,1.5,2,3.38,2,2.11,0,3-.78,3-1.84s-.57-1.62-3.23-2.13c-3.07-.59-3.83-1.33-3.83-2.59s1.23-2.52,3.92-2.52,4,1.31,4.16,2.66h-1.19c-.21-.8-1-1.79-3-1.79s-2.66.82-2.66,1.58.57,1.31,2.92,1.77c3.36.64,4.19,1.52,4.19,2.94,0,1.73-1.76,2.79-4.26,2.79-2.71,0-4.23-1.14-4.56-2.85Z"/><path class="cls-2" d="M214.41,169.74a3.69,3.69,0,0,0,3.85,4c2.24,0,3-1,3.42-1.79h1.22c-.5,1.26-1.76,2.68-4.69,2.68a4.64,4.64,0,0,1-5-4.9,4.79,4.79,0,0,1,5.16-5c3.67,0,4.83,2.52,4.83,4.31,0,.27,0,.53,0,.78Zm7.54-.84a3.33,3.33,0,0,0-3.64-3.36,3.49,3.49,0,0,0-3.83,3.36Z"/><path class="cls-1" d="M0,126a426.67,426.67,0,0,1,82-22,372.92,372.92,0,0,1,40.6-4.41,357.94,357.94,0,0,1,50.29,1.08c52.32,4.37,109,20.79,124.24,25.33A526.69,526.69,0,0,0,198,107,535.44,535.44,0,0,0,0,126Z"/></g></g></svg>